<svg xmlns="http://www.w3.org/2000/svg" xmlns:xlink="http://www.w3.org/1999/xlink" width="135" height="48" viewBox="0 0 135 48"><defs><path id="prefix__a" d="M0 .101h25.267v26.851H0z"/><path id="prefix__c" d="M0 47.709h134.919V.233H0z"/></defs><g fill="none" fill-rule="evenodd"><path fill="#FFF" d="M80.337 34.72h6.964V7.844h-6.964zm-52.971 0h6.965V.513h-6.965zM80.345 5.987h6.965V.513h-6.965z"/><g transform="translate(0 .28)"><path fill="#FFF" d="M71.512 8.525v-.96h-6.919V34.44h6.964V21.5c0-6.698 2.808-7.557 5.255-7.557h1.7V6.976h-1.7c-1.955 0-3.778.54-5.3 1.549m41.145-.96h-9.234l-7.143 7.513V7.565h-6.965V34.44h6.965v-9.385l7.556 9.385h9.024l-12.032-14.572zM55.618 23.842c-.397 1.11-1.037 2.055-1.863 2.771-.775.582-1.887 1.21-3.316 1.436a6.56 6.56 0 01-.76.044c-1.827 0-3.26-.668-4.22-1.314-1.594-1.27-2.613-3.321-2.613-5.679 0-2.314.88-4.264 2.323-5.513.775-.584 1.885-1.212 3.316-1.436.248-.028.502-.044.759-.044 1.827 0 3.261.668 4.22 1.313a6.867 6.867 0 012.154 3.04c.294.814.46 1.703.46 2.64 0 .989-.164 1.91-.46 2.742zm0-14.493c-1.748-.877-3.743-1.367-5.896-1.367-.084 0-.168.004-.251.006a8.078 8.078 0 00-.312-.006c-3.512 0-6.76 1.352-9.145 3.806-2.37 2.438-3.675 5.746-3.675 9.312 0 7.479 5.532 13.117 12.863 13.117.084 0 .167-.003.25-.004.104.002.207.004.312.004 2.087 0 4.079-.48 5.854-1.384v1.607h6.965V7.565h-6.965v1.784z"/><path fill="#FFF" d="M127.953 23.842c-.397 1.11-1.036 2.055-1.863 2.771-.775.582-1.886 1.21-3.316 1.436a6.547 6.547 0 01-.76.044c-1.827 0-3.26-.668-4.219-1.314-1.595-1.27-2.613-3.321-2.613-5.679 0-2.314.879-4.264 2.322-5.513.776-.584 1.886-1.212 3.318-1.436.246-.028.498-.044.758-.044 1.827 0 3.26.668 4.22 1.313a6.85 6.85 0 012.153 3.04c.295.814.46 1.703.46 2.64 0 .989-.163 1.91-.46 2.742zm0-16.277v1.784c-1.747-.877-3.744-1.367-5.897-1.367-.085 0-.167.004-.249.006a8.078 8.078 0 00-.312-.006c-3.512 0-6.76 1.352-9.144 3.806-2.37 2.438-3.675 5.746-3.675 9.312 0 7.479 5.528 13.117 12.86 13.117.086 0 .169-.003.251-.004.104.002.207.004.313.004 2.086 0 4.08-.48 5.853-1.384v1.607h6.966V7.565h-6.966z"/><g transform="translate(0 7.182)"><mask id="prefix__b" fill="#fff"><use xlink:href="#prefix__a"/></mask><path fill="#FFF" d="M13.471 20.683a7.55 7.55 0 01-3.088-.661c-2.222-1.15-3.723-3.598-3.723-6.496 0-4.147 2.752-7.157 6.547-7.157 1.203 0 2.239.284 3.086.661a6.654 6.654 0 012.41 2.145l5.909-3.067c-2.3-3.67-6.323-6.007-11.098-6.007-.058 0-.117.002-.176.004C13.266.103 13.194.1 13.12.1 9.526.1 6.202 1.483 3.76 3.996 1.335 6.492 0 9.876 0 13.527c0 7.654 5.659 13.425 13.163 13.425.059 0 .117-.002.176-.004.073.002.145.004.219.004 3.595 0 6.918-1.383 9.36-3.897a13.01 13.01 0 002.349-3.34l-6.373-2.02c-1.147 1.845-3.087 2.988-5.423 2.988" mask="url(#prefix__b)"/></g><path fill="#FFF" d="M10.743 45.674c.074.678.718 1.126 1.614 1.126.849 0 1.467-.448 1.467-1.065 0-.531-.37-.858-1.214-1.075l-.806-.209c-1.156-.295-1.67-.804-1.67-1.657 0-1.044.914-1.775 2.22-1.775 1.247 0 2.152.74 2.187 1.792h-.783c-.07-.674-.613-1.087-1.431-1.087-.814 0-1.38.422-1.38 1.035 0 .474.348.757 1.201.98l.658.173c1.3.326 1.827.826 1.827 1.727 0 1.148-.905 1.866-2.35 1.866-1.331 0-2.253-.722-2.326-1.831h.786zm5.542-1.41c0 1.545.805 2.519 2.089 2.519 1.283 0 2.088-.974 2.088-2.519 0-1.549-.805-2.523-2.088-2.523-1.284 0-2.089.974-2.089 2.523m4.981 0c0 1.993-1.113 3.241-2.892 3.241-1.78 0-2.893-1.248-2.893-3.24 0-1.993 1.114-3.246 2.893-3.246 1.779 0 2.892 1.253 2.892 3.245m1.153 3.137v-6.278h3.811v.705h-3.028v2.158h2.78v.696h-2.78v2.719zm6.512 0v-5.573h-2.022v-.705h4.829v.705h-2.024v5.573zm5.847 0h-.739l-1.71-6.278h.817l1.258 5.125h.035l1.414-5.125h.792l1.413 5.125h.035l1.257-5.125h.818l-1.71 6.278h-.739L36.27 42.42h-.044zm6.991-2.463h2.036L42.8 42.076h-.026l-1.005 2.862zm2.266.666H41.54l-.632 1.797h-.822l2.314-6.278h.775l2.314 6.278h-.822l-.63-1.797zm3.132-1.379h1.545c.805 0 1.262-.435 1.262-1.205 0-.752-.487-1.2-1.297-1.2h-1.51v2.405zm0 3.176h-.782v-6.277h2.396c1.21 0 2.002.74 2.002 1.87 0 .875-.474 1.553-1.262 1.801l1.453 2.606h-.918l-1.344-2.484h-1.545v2.484zm8.666 0h-3.889v-6.278h3.889v.705h-3.106v2.014h2.945v.696h-2.945v2.158h3.106z"/><mask id="prefix__d" fill="#fff"><use xlink:href="#prefix__c"/></mask><path fill="#FFF" d="M74 47.401h.783v-6.278H74zm2.179 0v-6.278h.761l3.437 4.929h.04v-4.929h.774v6.278h-.761l-3.437-4.912h-.039v4.912zm6.409 0v-6.278h.76l3.437 4.929h.04v-4.929h.774v6.278h-.761l-3.437-4.912h-.039v4.912zm6.969-3.137c0 1.545.804 2.519 2.087 2.519 1.284 0 2.09-.974 2.09-2.519 0-1.549-.806-2.523-2.09-2.523-1.283 0-2.087.974-2.087 2.523m4.98 0c0 1.993-1.113 3.241-2.893 3.241-1.778 0-2.891-1.248-2.891-3.24 0-1.993 1.113-3.246 2.891-3.246 1.78 0 2.893 1.253 2.893 3.245m2.75 3.137l-2.314-6.278h.822l1.866 5.325h.026l1.866-5.325h.823l-2.315 6.278zm4.603-2.463h2.036l-1.006-2.862h-.025l-1.005 2.862zm2.266.666h-2.497l-.63 1.797h-.823l2.314-6.278h.775l2.314 6.278h-.823l-.63-1.797zm3.11 1.797v-5.573h-2.023v-.705h4.83v.705h-2.024v5.573zm3.811 0h.783v-6.278h-.783zm2.74-3.137c0 1.545.806 2.519 2.089 2.519s2.087-.974 2.087-2.519c0-1.549-.804-2.523-2.087-2.523-1.283 0-2.089.974-2.089 2.523m4.982 0c0 1.993-1.114 3.241-2.893 3.241-1.78 0-2.894-1.248-2.894-3.24 0-1.993 1.114-3.246 2.894-3.246 1.779 0 2.893 1.253 2.893 3.245m1.153 3.137v-6.278h.761l3.437 4.929h.039v-4.929h.774v6.278h-.761l-3.437-4.912h-.039v4.912zm-54.254.308h-1.877v-2.541h-2.386v-1.824h2.386v-2.529h1.877v2.529h2.386v1.824h-2.386z" mask="url(#prefix__d)"/></g></g></svg>